<svg width="764" height="360" viewBox="0 0 764 360" fill="none" xmlns="http://www.w3.org/2000/svg">
<path d="M0.5 0.906006V359.406L327.5 206.921L0.5 0.906006Z" fill="white"/>
<path d="M763 0.906006V359.406L436 206.921L763 0.906006Z" fill="white"/>
<path d="M327.5 206.921L0.5 359.406H381.75H763L436 206.921C366.5 206.921 397 206.921 327.5 206.921Z" fill="white"/>
<path d="M0.5 359.406V0.906006L327.5 206.921M0.5 359.406L327.5 206.921M0.5 359.406H381.75H763M327.5 206.921C397 206.921 366.5 206.921 436 206.921M763 359.406V0.906006L436 206.921M763 359.406L436 206.921" stroke="black"/>
</svg>
